<svg width="250" height="49" viewBox="0 0 250 49" fill="none" xmlns="http://www.w3.org/2000/svg">
<path d="M2.54497 7.92645L0.0546265 8.67356L8.13256 35.6H38.9998V18.7C38.9998 15.1102 36.0897 12.2 32.4998 12.2H3.82704L2.54497 7.92645Z" fill="#FFE600"/>
<path fill-rule="evenodd" clip-rule="evenodd" d="M14.3 38.2C12.1461 38.2 10.4 39.9461 10.4 42.1C10.4 44.2539 12.1461 46 14.3 46C16.4539 46 18.2 44.2539 18.2 42.1C18.2 39.9461 16.4539 38.2 14.3 38.2ZM13 42.1C13 41.382 13.5821 40.8 14.3 40.8C15.018 40.8 15.6 41.382 15.6 42.1C15.6 42.818 15.018 43.4 14.3 43.4C13.5821 43.4 13 42.818 13 42.1Z" fill="#FFE600"/>
<path fill-rule="evenodd" clip-rule="evenodd" d="M32.5 38.2C30.3461 38.2 28.6 39.9461 28.6 42.1C28.6 44.2539 30.3461 46 32.5 46C34.6539 46 36.4 44.2539 36.4 42.1C36.4 39.9461 34.6539 38.2 32.5 38.2ZM31.2 42.1C31.2 41.382 31.7821 40.8 32.5 40.8C33.218 40.8 33.8 41.382 33.8 42.1C33.8 42.818 33.218 43.4 32.5 43.4C31.7821 43.4 31.2 42.818 31.2 42.1Z" fill="#FFE600"/>
<path d="M73.6484 33.2656H61.2266V34.5781C61.2266 36.7031 61.5156 38.125 62.0938 38.8438C62.6719 39.5625 63.4297 39.9219 64.3672 39.9219C66.3828 39.9219 67.5156 38.5703 67.7656 35.8672L73.6484 36.2422C72.6016 41.7422 69.4688 44.4922 64.25 44.4922C61.0312 44.4922 58.5859 43.4062 56.9141 41.2344C55.2422 39.0625 54.4062 36.1562 54.4062 32.5156C54.4062 28.4062 55.2891 25.2734 57.0547 23.1172C58.8359 20.9453 61.2188 19.8594 64.2031 19.8594C66.8906 19.8594 69.1328 20.8203 70.9297 22.7422C72.7422 24.6484 73.6484 28.1562 73.6484 33.2656ZM67.4141 29.4453C67.4297 29.1641 67.4375 28.9453 67.4375 28.7891C67.4375 25.7422 66.4062 24.2188 64.3438 24.2188C62.3125 24.2188 61.2891 25.9609 61.2734 29.4453H67.4141ZM79.9156 12.0078H86.525V29.4688L93.1812 20.3281H99.1812L93.2047 28.2734L99.7672 44H92.6422L88.9391 33.0078L86.525 36.3359V44H79.9156V12.0078ZM110.722 27.8516L104.464 27.2422C104.761 24.8672 105.769 23.0391 107.487 21.7578C109.222 20.4766 111.402 19.8359 114.027 19.8359C116.245 19.8359 118.027 20.2656 119.37 21.125C120.714 21.9688 121.558 22.9531 121.902 24.0781C122.261 25.2031 122.441 26.9453 122.441 29.3047V38.75C122.441 41.6875 122.573 43.4375 122.839 44H116.722C116.503 43.3594 116.394 42.1484 116.394 40.3672C114.941 43.1172 112.777 44.4922 109.902 44.4922C108.058 44.4922 106.558 43.9453 105.402 42.8516C104.245 41.7422 103.667 40.1328 103.667 38.0234C103.667 35.3828 104.542 33.3438 106.292 31.9062C108.042 30.4531 111.23 29.5859 115.855 29.3047V28.4141C115.855 26.8359 115.691 25.7422 115.362 25.1328C115.05 24.5234 114.433 24.2188 113.511 24.2188C111.823 24.2188 110.894 25.4297 110.722 27.8516ZM115.855 32.6797C113.933 32.8984 112.558 33.3281 111.73 33.9688C110.917 34.5938 110.511 35.6562 110.511 37.1562C110.511 39.1562 111.245 40.1562 112.714 40.1562C113.511 40.1562 114.23 39.7109 114.87 38.8203C115.527 37.9141 115.855 36.2578 115.855 33.8516V32.6797ZM129.716 20.3281H135.528V26.0469C136.575 22.0312 138.442 20.0234 141.13 20.0234C141.458 20.0234 141.833 20.0625 142.255 20.1406V26.5859C141.77 26.5234 141.403 26.4922 141.153 26.4922C137.934 26.4922 136.325 28.9297 136.325 33.8047V44H129.716V20.3281ZM148.944 13.0625L155.366 12.8516V20.3281H159.725V25.5312H155.366V34.2266C155.366 35.8359 155.397 36.8828 155.459 37.3672C155.537 37.8359 155.772 38.2344 156.162 38.5625C156.569 38.875 157.241 39.0312 158.178 39.0312C158.678 39.0312 159.303 39.0156 160.053 38.9844V44C158.584 44.3281 157.241 44.4922 156.022 44.4922C154.022 44.4922 152.491 44.1094 151.428 43.3438C150.366 42.5781 149.686 41.6172 149.389 40.4609C149.092 39.3047 148.944 37.4688 148.944 34.9531V25.5312H146.319V20.3281H148.944V13.0625Z" fill="white"/>
</svg>
